<?xml version="1.0" encoding="UTF-8" standalone="no"?>
<svg width="260px" height="260px" viewBox="0 0 260 260" version="1.1" xmlns="http://www.w3.org/2000/svg" xmlns:xlink="http://www.w3.org/1999/xlink">
    <!-- Generator: sketchtool 41.1 (35376) - http://www.bohemiancoding.com/sketch -->
    <title>D39F32C8-92C4-4934-856A-6897F88B1350</title>
    <desc>Created with sketchtool.</desc>
    <defs>
        <rect id="path-1" x="-6.10714418e-13" y="0" width="260" height="260" rx="2"></rect>
        <linearGradient x1="78.6007566%" y1="38.4177531%" x2="18.3435315%" y2="82.7345491%" id="linearGradient-3">
            <stop stop-color="#DC1E30" offset="0%"></stop>
            <stop stop-color="#8E181A" offset="100%"></stop>
        </linearGradient>
    </defs>
    <g id="Page-1" stroke="none" stroke-width="1" fill="none" fill-rule="evenodd">
        <g id="BD-GUIDE-Logo-and-Colors" transform="translate(-374.000000, -135.000000)">
            <g id="brambang_favicon" transform="translate(374.000000, 135.000000)">
                <mask id="mask-2" fill="white">
                    <use xlink:href="#path-1"></use>
                </mask>
                <g id="Mask"></g>
                <path d="M168.239604,90.4436191 C170.857034,91.5694732 173.474464,93.0706121 175.717976,94.571751 C204.883625,112.210133 222.457798,145.985759 217.970775,182.013092 C211.988078,230.800107 167.491767,265.326302 118.882351,259.321746 C84.4818414,255.193614 57.1857848,231.550676 46.3421459,201.152613 C25.4027053,143.358765 69.8990166,64.5489729 112.525735,27.7710698 C115.143165,25.1440767 117.760595,22.8923683 121.125862,21.0159447 C131.595583,12.7596807 142.81314,5.6292709 154.778535,0 L155.152454,0.375284726 C148.048,3.75284726 142.065303,8.63154871 137.57828,14.6361043 C142.065303,13.8855349 146.926245,13.5102501 152.161105,14.2608196 C158.143802,15.0113891 163.378662,16.8878127 168.239604,19.5148058 C165.996092,18.7642363 163.752581,18.3889516 161.509069,18.0136669 C152.535023,16.8878127 144.308815,18.3889516 136.830443,21.7665141 C139.821792,21.3912294 143.187059,21.7665141 146.178408,22.1417989 C149.169756,22.5170836 151.787186,23.267653 154.778535,24.0182225 C141.317466,22.5170836 133.091257,28.5216392 130.473827,37.9037574 C121.499781,66.0501118 146.926245,80.3109314 168.239604,90.4436191 L168.239604,90.4436191 L168.239604,90.4436191 Z M134.213013,135.853071 C115.143165,133.601363 97.5689918,147.111613 95.3254803,166.251134 C93.0819688,185.390655 106.543038,203.029037 125.612885,205.280745 C144.682733,207.532454 162.256907,194.022204 164.500418,174.882682 C167.117848,155.743161 153.282861,138.480064 134.213013,135.853071 L134.213013,135.853071 Z" id="Shape" fill="url(#linearGradient-3)" mask="url(#mask-2)"></path>
            </g>
        </g>
    </g>
</svg>